<svg width="24" height="24" viewBox="0 0 24 24" fill="none" xmlns="http://www.w3.org/2000/svg">
<path d="M19.45 21C17.3 21 15.2043 20.5207 13.163 19.562C11.121 18.604 9.31267 17.3373 7.738 15.762C6.16267 14.1873 4.896 12.379 3.938 10.337C2.97933 8.29567 2.5 6.2 2.5 4.05C2.5 3.75 2.6 3.5 2.8 3.3C3 3.1 3.25 3 3.55 3H7.6C7.83333 3 8.04167 3.075 8.225 3.225C8.40833 3.375 8.51667 3.56667 8.55 3.8L9.2 7.3C9.23333 7.53333 9.22933 7.74567 9.188 7.937C9.146 8.129 9.05 8.3 8.9 8.45L6.5 10.9C7.2 12.1 8.075 13.225 9.125 14.275C10.175 15.325 11.3333 16.2333 12.6 17L14.95 14.65C15.1 14.5 15.296 14.3873 15.538 14.312C15.7793 14.2373 16.0167 14.2167 16.25 14.25L19.7 14.95C19.9333 15 20.125 15.1123 20.275 15.287C20.425 15.4623 20.5 15.6667 20.5 15.9V19.95C20.5 20.25 20.4 20.5 20.2 20.7C20 20.9 19.75 21 19.45 21Z" fill="currentColor"/>
</svg>
