<svg width="24" height="24" viewBox="0 0 24 24" fill="none" xmlns="http://www.w3.org/2000/svg">
<path d="M11 13H13V15H11V13ZM11 5H13V11H11V5ZM17 4.76C18.86 6.19 20 8.61 20 11C19.9987 12.4303 19.614 13.8342 18.8858 15.0653C18.1577 16.2965 17.1128 17.3099 15.86 18H8.14C6.88717 17.3099 5.84228 16.2965 5.11415 15.0653C4.38602 13.8342 4.00128 12.4303 4 11C4 8.61 5.09 6.17 7 4.76V2H5V3.86C3.15 5.68 2 8.2 2 11C2 13.8 3.15 16.32 5 18.14V22H7V20H9V22H11V20H13V22H15V20H17V22H19V18.14C20.85 16.32 22 13.8 22 11C22 8.2 20.85 5.68 19 3.86V2H17V4.76Z" fill="currentColor"/>
</svg>
