<svg width="24" height="24" viewBox="0 0 24 24" fill="none" xmlns="http://www.w3.org/2000/svg">
<path d="M12.2353 19.0294C14.1765 17.4608 15.6424 15.951 16.6329 14.5C17.6227 13.049 18.1176 11.6863 18.1176 10.4118C18.1176 9.31373 17.9169 8.37726 17.5153 7.60235C17.1129 6.82824 16.6176 6.20078 16.0294 5.72C15.4412 5.24 14.8039 4.89216 14.1176 4.67647C13.4314 4.46078 12.8039 4.35294 12.2353 4.35294C11.6667 4.35294 11.0392 4.46078 10.3529 4.67647C9.66667 4.89216 9.02941 5.24 8.44118 5.72C7.85294 6.20078 7.35804 6.82824 6.95647 7.60235C6.55412 8.37726 6.35294 9.31373 6.35294 10.4118C6.35294 11.6863 6.84784 13.049 7.83765 14.5C8.82824 15.951 10.2941 17.4608 12.2353 19.0294ZM12.2353 22C9.47059 19.9608 7.40667 17.9804 6.04353 16.0588C4.68118 14.1373 4 12.2549 4 10.4118C4 9.01961 4.2502 7.79882 4.75059 6.74941C5.2502 5.70078 5.89216 4.82353 6.67647 4.11765C7.46078 3.41176 8.34314 2.88235 9.32353 2.52941C10.3039 2.17647 11.2745 2 12.2353 2C13.1961 2 14.1667 2.17647 15.1471 2.52941C16.1275 2.88235 17.0098 3.41176 17.7941 4.11765C18.5784 4.82353 19.2208 5.70078 19.7212 6.74941C20.2208 7.79882 20.4706 9.01961 20.4706 10.4118C20.4706 12.2549 19.789 14.1373 18.4259 16.0588C17.0635 17.9804 15 19.9608 12.2353 22ZM12.2353 12.5882C12.8824 12.5882 13.4365 12.3576 13.8976 11.8965C14.358 11.4361 14.5882 10.8824 14.5882 10.2353C14.5882 9.58824 14.358 9.03412 13.8976 8.57294C13.4365 8.11255 12.8824 7.88235 12.2353 7.88235C11.5882 7.88235 11.0345 8.11255 10.5741 8.57294C10.1129 9.03412 9.88235 9.58824 9.88235 10.2353C9.88235 10.8824 10.1129 11.4361 10.5741 11.8965C11.0345 12.3576 11.5882 12.5882 12.2353 12.5882Z" fill="currentColor"/>
</svg>
