<svg width="24" height="24" viewBox="0 0 24 24" fill="none" xmlns="http://www.w3.org/2000/svg">
<path d="M13.34 11.4195V5.41953H15.34V8.01953L20.34 3.01953L21.74 4.41953L16.74 9.41953H19.34V11.4195H13.34ZM20.29 21.4195C18.2067 21.4195 16.1484 20.9654 14.115 20.057C12.0817 19.1487 10.2317 17.8612 8.56503 16.1945C6.89836 14.5279 5.61086 12.6779 4.70253 10.6445C3.79419 8.6112 3.34003 6.55286 3.34003 4.46953C3.34003 4.16953 3.44003 3.91953 3.64003 3.71953C3.84003 3.51953 4.09003 3.41953 4.39003 3.41953H8.44003C8.67336 3.41953 8.88169 3.4987 9.06503 3.65703C9.24836 3.81536 9.35669 4.00286 9.39003 4.21953L10.04 7.71953C10.0734 7.9862 10.065 8.2112 10.015 8.39453C9.96503 8.57786 9.87336 8.7362 9.74003 8.86953L7.31503 11.3195C7.64836 11.9362 8.04419 12.532 8.50253 13.107C8.96086 13.682 9.46503 14.2362 10.015 14.7695C10.5317 15.2862 11.0734 15.7654 11.64 16.207C12.2067 16.6487 12.8067 17.0529 13.44 17.4195L15.79 15.0695C15.94 14.9195 16.1359 14.807 16.3775 14.732C16.6192 14.657 16.8567 14.6362 17.09 14.6695L20.54 15.3695C20.7734 15.4362 20.965 15.557 21.115 15.732C21.265 15.907 21.34 16.1029 21.34 16.3195V20.3695C21.34 20.6695 21.24 20.9195 21.04 21.1195C20.84 21.3195 20.59 21.4195 20.29 21.4195ZM6.36503 9.41953L8.01503 7.76953L7.59003 5.41953H5.36503C5.44836 6.10286 5.56503 6.77786 5.71503 7.44453C5.86503 8.1112 6.08169 8.76953 6.36503 9.41953ZM15.315 18.3695C15.965 18.6529 16.6275 18.8779 17.3025 19.0445C17.9775 19.2112 18.6567 19.3195 19.34 19.3695V17.1695L16.99 16.6945L15.315 18.3695Z" fill="currentColor"/>
</svg>
