<svg width="24" height="24" viewBox="0 0 24 24" fill="none" xmlns="http://www.w3.org/2000/svg">
<path d="M18.499 10.8503C17.1157 10.8503 15.9365 10.3628 14.9615 9.38784C13.9865 8.41284 13.499 7.23368 13.499 5.85034C13.499 4.48368 13.9823 3.30868 14.949 2.32534C15.9157 1.34201 17.099 0.850342 18.499 0.850342C19.8823 0.850342 21.0615 1.33784 22.0365 2.31284C23.0115 3.28784 23.499 4.46701 23.499 5.85034C23.499 7.23368 23.0115 8.41284 22.0365 9.38784C21.0615 10.3628 19.8823 10.8503 18.499 10.8503ZM17.999 6.85034H18.999V2.85034H17.999V6.85034ZM4.49901 19.8503C4.21567 19.8503 3.97817 19.7545 3.78651 19.5628C3.59484 19.3712 3.49901 19.1337 3.49901 18.8503V10.8503L5.59901 4.85034C5.69901 4.55034 5.87817 4.30868 6.13651 4.12534C6.39484 3.94201 6.68234 3.85034 6.99901 3.85034H11.799C11.699 4.16701 11.624 4.49201 11.574 4.82534C11.524 5.15868 11.499 5.50034 11.499 5.85034H7.34901L6.29901 8.85034H12.174C12.3573 9.23368 12.5698 9.59201 12.8115 9.92534C13.0532 10.2587 13.324 10.567 13.624 10.8503H5.49901V15.8503H19.499V12.7753C19.849 12.7253 20.1907 12.6503 20.524 12.5503C20.8573 12.4503 21.1823 12.3253 21.499 12.1753V18.8503C21.499 19.1337 21.4032 19.3712 21.2115 19.5628C21.0198 19.7545 20.7823 19.8503 20.499 19.8503H19.499C19.2157 19.8503 18.9782 19.7545 18.7865 19.5628C18.5948 19.3712 18.499 19.1337 18.499 18.8503V17.8503H6.49901V18.8503C6.49901 19.1337 6.40317 19.3712 6.21151 19.5628C6.01984 19.7545 5.78234 19.8503 5.49901 19.8503H4.49901ZM18.499 8.85034C18.6323 8.85034 18.749 8.80034 18.849 8.70034C18.949 8.60034 18.999 8.48368 18.999 8.35034C18.999 8.21701 18.949 8.10034 18.849 8.00034C18.749 7.90034 18.6323 7.85034 18.499 7.85034C18.3657 7.85034 18.249 7.90034 18.149 8.00034C18.049 8.10034 17.999 8.21701 17.999 8.35034C17.999 8.48368 18.049 8.60034 18.149 8.70034C18.249 8.80034 18.3657 8.85034 18.499 8.85034ZM7.99901 14.8503C8.41567 14.8503 8.76984 14.7045 9.06151 14.4128C9.35317 14.1212 9.49901 13.767 9.49901 13.3503C9.49901 12.9337 9.35317 12.5795 9.06151 12.2878C8.76984 11.9962 8.41567 11.8503 7.99901 11.8503C7.58234 11.8503 7.22817 11.9962 6.93651 12.2878C6.64484 12.5795 6.49901 12.9337 6.49901 13.3503C6.49901 13.767 6.64484 14.1212 6.93651 14.4128C7.22817 14.7045 7.58234 14.8503 7.99901 14.8503ZM16.999 14.8503C17.4157 14.8503 17.7698 14.7045 18.0615 14.4128C18.3532 14.1212 18.499 13.767 18.499 13.3503C18.499 13.267 18.4948 13.1837 18.4865 13.1003C18.4782 13.017 18.4573 12.9337 18.424 12.8503C17.974 12.8503 17.5365 12.8087 17.1115 12.7253C16.6865 12.642 16.2823 12.517 15.899 12.3503C15.7657 12.4837 15.6657 12.6378 15.599 12.8128C15.5323 12.9878 15.499 13.167 15.499 13.3503C15.499 13.767 15.6448 14.1212 15.9365 14.4128C16.2282 14.7045 16.5823 14.8503 16.999 14.8503Z" fill="currentColor"/>
</svg>
