<svg width="24" height="24" viewBox="0 0 24 24" fill="none" xmlns="http://www.w3.org/2000/svg">
<path d="M11 22C9.33333 22 7.91667 21.4167 6.75 20.25C5.58333 19.0833 5 17.6667 5 16V14C6.18333 13.9833 7.3 14.225 8.35 14.725C9.4 15.225 10.2833 15.9 11 16.75V12.925C9.56667 12.6917 8.375 12.0208 7.425 10.9125C6.475 9.80417 6 8.5 6 7V3.6C6 3.16667 6.19167 2.8625 6.575 2.6875C6.95833 2.5125 7.31667 2.56667 7.65 2.85L9.5 4.45L11.225 2.35C11.425 2.11667 11.6833 2 12 2C12.3167 2 12.575 2.11667 12.775 2.35L14.5 4.45L16.35 2.85C16.6833 2.56667 17.0417 2.5125 17.425 2.6875C17.8083 2.8625 18 3.16667 18 3.6V7C18 8.5 17.525 9.80417 16.575 10.9125C15.625 12.0208 14.4333 12.6917 13 12.925V16.75C13.7167 15.9 14.6 15.225 15.65 14.725C16.7 14.225 17.8167 13.9833 19 14V16C19 17.6667 18.4167 19.0833 17.25 20.25C16.0833 21.4167 14.6667 22 13 22H11Z" fill="currentColor"/>
</svg>
