<svg width="24" height="24" viewBox="0 0 24 24" fill="none" xmlns="http://www.w3.org/2000/svg">
<path d="M19.85 16.4L18.3 14.9C18.4 14.6167 18.475 14.3292 18.525 14.0375C18.575 13.7458 18.6 13.4333 18.6 13.1C18.6 12.3167 18.4542 11.575 18.1625 10.875C17.8708 10.175 17.4333 9.55 16.85 9L12.6 4.8L10.4 6.95L9 5.55L12.6 2L18.25 7.55C18.9833 8.25 19.5583 9.07917 19.975 10.0375C20.3917 10.9958 20.6 12.0167 20.6 13.1C20.6 13.7 20.5333 14.275 20.4 14.825C20.2667 15.375 20.0833 15.9 19.85 16.4ZM20.4 22.6L17.3 19.5C16.6167 19.9833 15.8833 20.3542 15.1 20.6125C14.3167 20.8708 13.4833 21 12.6 21C10.3833 21 8.49583 20.2292 6.9375 18.6875C5.37917 17.1458 4.6 15.2833 4.6 13.1C4.6 12.25 4.73333 11.4333 5 10.65C5.26667 9.86667 5.66667 9.11667 6.2 8.4L2 4.2L3.4 2.8L21.8 21.2L20.4 22.6ZM12.6 19C13.2 19 13.7708 18.9167 14.3125 18.75C14.8542 18.5833 15.3667 18.35 15.85 18.05L7.6 9.85C7.25 10.3833 6.99583 10.9167 6.8375 11.45C6.67917 11.9833 6.6 12.5333 6.6 13.1C6.6 14.7333 7.18333 16.125 8.35 17.275C9.51667 18.425 10.9333 19 12.6 19Z" fill="currentColor"/>
</svg>
