<svg width="24" height="24" viewBox="0 0 24 24" fill="none" xmlns="http://www.w3.org/2000/svg">
<path d="M12 6C13.1046 6 14 5.10457 14 4C14 2.89543 13.1046 2 12 2C10.8954 2 10 2.89543 10 4C10 5.10457 10.8954 6 12 6Z" fill="currentColor"/>
<path d="M19 11.9887V9.98869C17.46 10.0087 15.91 9.23869 14.93 8.15869L13.64 6.72869C13.47 6.53869 13.26 6.38869 13.03 6.27869C13.02 6.27869 13.02 6.26869 13.01 6.26869H13C12.65 6.06869 12.25 5.96869 11.81 6.00869C10.76 6.09869 10 7.02869 10 8.07869V13.9887C10 15.0887 10.9 15.9887 12 15.9887H17V20.9887H19V15.4887C19 14.3887 18.1 13.4887 17 13.4887H14V10.0387C15.29 11.1087 17.25 11.9787 19 11.9887ZM12.83 16.9887C12.42 18.1487 11.31 18.9887 10 18.9887C8.34 18.9887 7 17.6487 7 15.9887C7 14.6787 7.84 13.5787 9 13.1587V11.0887C6.72 11.5487 5 13.5687 5 15.9887C5 18.7487 7.24 20.9887 10 20.9887C12.42 20.9887 14.44 19.2687 14.9 16.9887H12.83Z" fill="currentColor"/>
</svg>
