<svg width="24" height="24" viewBox="0 0 24 24" fill="none" xmlns="http://www.w3.org/2000/svg">
<path d="M13.6 23.0474C12.2333 23.0474 10.95 22.7349 9.75 22.1099C8.55 21.4849 7.56667 20.614 6.8 19.4974L2 12.4474L2.475 11.9724C2.80833 11.6224 3.22083 11.4224 3.7125 11.3724C4.20417 11.3224 4.65 11.439 5.05 11.7224L7.8 13.6224V4.04736C7.8 3.76403 7.89583 3.52653 8.0875 3.33486C8.27917 3.1432 8.51667 3.04736 8.8 3.04736C9.08333 3.04736 9.32083 3.1432 9.5125 3.33486C9.70417 3.52653 9.8 3.76403 9.8 4.04736V12.0474H11.8V2.04736C11.8 1.76403 11.8958 1.52653 12.0875 1.33486C12.2792 1.1432 12.5167 1.04736 12.8 1.04736C13.0833 1.04736 13.3208 1.1432 13.5125 1.33486C13.7042 1.52653 13.8 1.76403 13.8 2.04736V12.0474H15.8V3.04736C15.8 2.76403 15.8958 2.52653 16.0875 2.33486C16.2792 2.1432 16.5167 2.04736 16.8 2.04736C17.0833 2.04736 17.3208 2.1432 17.5125 2.33486C17.7042 2.52653 17.8 2.76403 17.8 3.04736V12.0474H19.8V5.04736C19.8 4.76403 19.8958 4.52653 20.0875 4.33486C20.2792 4.1432 20.5167 4.04736 20.8 4.04736C21.0833 4.04736 21.3208 4.1432 21.5125 4.33486C21.7042 4.52653 21.8 4.76403 21.8 5.04736V14.8474C21.8 17.1307 21.0042 19.0682 19.4125 20.6599C17.8208 22.2515 15.8833 23.0474 13.6 23.0474Z" fill="currentColor"/>
</svg>
