<svg width="24" height="24" viewBox="0 0 24 24" fill="none" xmlns="http://www.w3.org/2000/svg">
<path d="M13.6 23C12.2333 23 10.95 22.6875 9.75 22.0625C8.55 21.4375 7.56667 20.5667 6.8 19.45L2 12.4L2.475 11.925C2.80833 11.575 3.22083 11.375 3.7125 11.325C4.20417 11.275 4.65 11.3917 5.05 11.675L7.8 13.575V4C7.8 3.71667 7.89583 3.47917 8.0875 3.2875C8.27917 3.09583 8.51667 3 8.8 3C9.08333 3 9.32083 3.09583 9.5125 3.2875C9.70417 3.47917 9.8 3.71667 9.8 4V17.425L6.1 14.85L8.475 18.3C9.05833 19.15 9.8 19.8125 10.7 20.2875C11.6 20.7625 12.5667 21 13.6 21C15.3167 21 16.7792 20.3958 17.9875 19.1875C19.1958 17.9792 19.8 16.5167 19.8 14.8V5C19.8 4.71667 19.8958 4.47917 20.0875 4.2875C20.2792 4.09583 20.5167 4 20.8 4C21.0833 4 21.3208 4.09583 21.5125 4.2875C21.7042 4.47917 21.8 4.71667 21.8 5V14.8C21.8 17.0833 21.0042 19.0208 19.4125 20.6125C17.8208 22.2042 15.8833 23 13.6 23ZM11.8 12V2C11.8 1.71667 11.8958 1.47917 12.0875 1.2875C12.2792 1.09583 12.5167 1 12.8 1C13.0833 1 13.3208 1.09583 13.5125 1.2875C13.7042 1.47917 13.8 1.71667 13.8 2V12H11.8ZM15.8 12V3C15.8 2.71667 15.8958 2.47917 16.0875 2.2875C16.2792 2.09583 16.5167 2 16.8 2C17.0833 2 17.3208 2.09583 17.5125 2.2875C17.7042 2.47917 17.8 2.71667 17.8 3V12H15.8Z" fill="currentColor"/>
</svg>
