<svg width="24" height="24" viewBox="0 0 24 24" fill="none" xmlns="http://www.w3.org/2000/svg">
<path d="M2 13V8C2 7.45 2.196 6.97933 2.588 6.588C2.97933 6.196 3.45 6 4 6H8V4C8 3.45 8.196 2.979 8.588 2.587C8.97933 2.19567 9.45 2 10 2H14C14.55 2 15.021 2.19567 15.413 2.587C15.8043 2.979 16 3.45 16 4V6H20C20.55 6 21.021 6.196 21.413 6.588C21.8043 6.97933 22 7.45 22 8V13H15V12C15 11.7167 14.9043 11.479 14.713 11.287C14.521 11.0957 14.2833 11 14 11H10C9.71667 11 9.47933 11.0957 9.288 11.287C9.096 11.479 9 11.7167 9 12V13H2ZM10 6H14V4H10V6ZM11 15V13H13V15H11ZM4 21C3.45 21 2.97933 20.8043 2.588 20.413C2.196 20.021 2 19.55 2 19V15H9V16C9 16.2833 9.096 16.5207 9.288 16.712C9.47933 16.904 9.71667 17 10 17H14C14.2833 17 14.521 16.904 14.713 16.712C14.9043 16.5207 15 16.2833 15 16V15H22V19C22 19.55 21.8043 20.021 21.413 20.413C21.021 20.8043 20.55 21 20 21H4Z" fill="currentColor"/>
</svg>
