<svg width="24" height="24" viewBox="0 0 24 24" fill="none" xmlns="http://www.w3.org/2000/svg">
<path d="M12.075 19H5C4.45 19 3.979 18.8043 3.587 18.413C3.19567 18.021 3 17.55 3 17V6C3 5.45 3.19567 4.97933 3.587 4.588C3.979 4.196 4.45 4 5 4H6V2H8V4H14V2H16V4H17C17.55 4 18.021 4.196 18.413 4.588C18.8043 4.97933 19 5.45 19 6V12.075C18.8333 12.0417 18.671 12.0207 18.513 12.012C18.3543 12.004 18.1833 12 18 12C17.8167 12 17.646 12.004 17.488 12.012C17.3293 12.0207 17.1667 12.0417 17 12.075V9H5V17H12.075C12.0417 17.1667 12.0207 17.3293 12.012 17.488C12.004 17.646 12 17.8167 12 18C12 18.1833 12.004 18.354 12.012 18.512C12.0207 18.6707 12.0417 18.8333 12.075 19ZM17 22V19H14V17H17V14H19V17H22V19H19V22H17Z" fill="currentColor"/>
</svg>
