<svg width="24" height="24" viewBox="0 0 24 24" fill="none" xmlns="http://www.w3.org/2000/svg">
<path d="M9 17H13C13.2833 17 13.5208 16.9042 13.7125 16.7125C13.9042 16.5208 14 16.2833 14 16V15L16 16.05V11.95L14 13V12C14 11.7167 13.9042 11.4792 13.7125 11.2875C13.5208 11.0958 13.2833 11 13 11H9C8.71667 11 8.47917 11.0958 8.2875 11.2875C8.09583 11.4792 8 11.7167 8 12V16C8 16.2833 8.09583 16.5208 8.2875 16.7125C8.47917 16.9042 8.71667 17 9 17ZM4 21V9L12 3L20 9V21H4ZM6 19H18V10L12 5.5L6 10V19Z" fill="currentColor"/>
</svg>
