<svg width="24" height="24" viewBox="0 0 24 24" fill="none" xmlns="http://www.w3.org/2000/svg">
<path d="M4 20C3.71667 20 3.47917 19.9042 3.2875 19.7125C3.09583 19.5208 3 19.2833 3 19V11L5.1 5C5.2 4.7 5.37917 4.45833 5.6375 4.275C5.89583 4.09167 6.18333 4 6.5 4H11.3C11.2 4.31667 11.125 4.64167 11.075 4.975C11.025 5.30833 11 5.65 11 6H6.85L5.8 9H11.675C12.0417 9.8 12.5542 10.4958 13.2125 11.0875C13.8708 11.6792 14.6 12.1417 15.4 12.475C15.2667 12.625 15.1667 12.7875 15.1 12.9625C15.0333 13.1375 15 13.3167 15 13.5C15 13.9167 15.1458 14.2708 15.4375 14.5625C15.7292 14.8542 16.0833 15 16.5 15C16.9167 15 17.2708 14.8542 17.5625 14.5625C17.8542 14.2708 18 13.9167 18 13.5C18 13.4167 17.9958 13.3333 17.9875 13.25C17.9792 13.1667 17.9583 13.0833 17.925 13C18.4583 13 18.9833 12.9458 19.5 12.8375C20.0167 12.7292 20.5167 12.5583 21 12.325V19C21 19.2833 20.9042 19.5208 20.7125 19.7125C20.5208 19.9042 20.2833 20 20 20H19C18.7167 20 18.4792 19.9042 18.2875 19.7125C18.0958 19.5208 18 19.2833 18 19V18H6V19C6 19.2833 5.90417 19.5208 5.7125 19.7125C5.52083 19.9042 5.28333 20 5 20H4ZM7.5 15C7.91667 15 8.27083 14.8542 8.5625 14.5625C8.85417 14.2708 9 13.9167 9 13.5C9 13.0833 8.85417 12.7292 8.5625 12.4375C8.27083 12.1458 7.91667 12 7.5 12C7.08333 12 6.72917 12.1458 6.4375 12.4375C6.14583 12.7292 6 13.0833 6 13.5C6 13.9167 6.14583 14.2708 6.4375 14.5625C6.72917 14.8542 7.08333 15 7.5 15ZM18 11C16.6167 11 15.4375 10.5125 14.4625 9.5375C13.4875 8.5625 13 7.38333 13 6C13 4.63333 13.4833 3.45833 14.45 2.475C15.4167 1.49167 16.6 1 18 1C19.3833 1 20.5625 1.4875 21.5375 2.4625C22.5125 3.4375 23 4.61667 23 6C23 7.38333 22.5125 8.5625 21.5375 9.5375C20.5625 10.5125 19.3833 11 18 11ZM18 9C18.1333 9 18.25 8.95 18.35 8.85C18.45 8.75 18.5 8.63333 18.5 8.5C18.5 8.36667 18.45 8.25 18.35 8.15C18.25 8.05 18.1333 8 18 8C17.8667 8 17.75 8.05 17.65 8.15C17.55 8.25 17.5 8.36667 17.5 8.5C17.5 8.63333 17.55 8.75 17.65 8.85C17.75 8.95 17.8667 9 18 9ZM17.5 7H18.5V3H17.5V7Z" fill="currentColor"/>
</svg>
