<svg width="24" height="24" viewBox="0 0 24 24" fill="none" xmlns="http://www.w3.org/2000/svg">
<path d="M7.5 3C8.36667 3 9.19167 3.18333 9.975 3.55C10.7583 3.91667 11.4333 4.43333 12 5.1C12.5667 4.43333 13.2417 3.91667 14.025 3.55C14.8083 3.18333 15.6333 3 16.5 3C18.0667 3 19.375 3.525 20.425 4.575C21.475 5.625 22 6.93333 22 8.5C22 8.58333 21.9958 8.66667 21.9875 8.75C21.9792 8.83333 21.975 8.91667 21.975 9H19.975C19.9917 8.91667 20 8.83333 20 8.75V8.5C20 7.5 19.6667 6.66667 19 6C18.3333 5.33333 17.5 5 16.5 5C15.7167 5 14.9917 5.22083 14.325 5.6625C13.6583 6.10417 13.2 6.66667 12.95 7.35H11.05C10.8 6.66667 10.3417 6.10417 9.675 5.6625C9.00833 5.22083 8.28333 5 7.5 5C6.5 5 5.66667 5.33333 5 6C4.33333 6.66667 4 7.5 4 8.5V8.75C4 8.83333 4.00833 8.91667 4.025 9H2.025C2.025 8.91667 2.02083 8.83333 2.0125 8.75C2.00417 8.66667 2 8.58333 2 8.5C2 6.93333 2.525 5.625 3.575 4.575C4.625 3.525 5.93333 3 7.5 3ZM5.3 15H8.1C8.63333 15.5167 9.21667 16.075 9.85 16.675C10.4833 17.275 11.2 17.9333 12 18.65C12.8 17.9333 13.5167 17.275 14.15 16.675C14.7833 16.075 15.3667 15.5167 15.9 15H18.725C18.0917 15.7 17.3417 16.4583 16.475 17.275C15.6083 18.0917 14.6 19.0167 13.45 20.05L12 21.35L10.55 20.05C9.4 19.0167 8.39583 18.0917 7.5375 17.275C6.67917 16.4583 5.93333 15.7 5.3 15ZM11.05 16C11.2667 16 11.4542 15.9375 11.6125 15.8125C11.7708 15.6875 11.8833 15.525 11.95 15.325L13.3 11.25L14.175 12.55C14.2583 12.6833 14.375 12.7917 14.525 12.875C14.675 12.9583 14.8333 13 15 13H23V11H15.575L13.85 8.45C13.75 8.3 13.6208 8.1875 13.4625 8.1125C13.3042 8.0375 13.1333 8 12.95 8C12.7333 8 12.5458 8.0625 12.3875 8.1875C12.2292 8.3125 12.1167 8.475 12.05 8.675L10.7 12.725L9.85 11.45C9.76667 11.3167 9.65 11.2083 9.5 11.125C9.35 11.0417 9.19167 11 9.025 11H1V13H8.425L10.15 15.55C10.25 15.7 10.3792 15.8125 10.5375 15.8875C10.6958 15.9625 10.8667 16 11.05 16Z" fill="currentColor"/>
</svg>
