<svg width="24" height="24" viewBox="0 0 24 24" fill="none" xmlns="http://www.w3.org/2000/svg">
<path d="M14.5 11.75C14.85 11.75 15.1458 11.6292 15.3875 11.3875C15.6292 11.1458 15.75 10.85 15.75 10.5C15.75 10.15 15.6292 9.85417 15.3875 9.6125C15.1458 9.37083 14.85 9.25 14.5 9.25C14.15 9.25 13.8542 9.37083 13.6125 9.6125C13.3708 9.85417 13.25 10.15 13.25 10.5C13.25 10.85 13.3708 11.1458 13.6125 11.3875C13.8542 11.6292 14.15 11.75 14.5 11.75ZM9.5 11.75C9.85 11.75 10.1458 11.6292 10.3875 11.3875C10.6292 11.1458 10.75 10.85 10.75 10.5C10.75 10.15 10.6292 9.85417 10.3875 9.6125C10.1458 9.37083 9.85 9.25 9.5 9.25C9.15 9.25 8.85417 9.37083 8.6125 9.6125C8.37083 9.85417 8.25 10.15 8.25 10.5C8.25 10.85 8.37083 11.1458 8.6125 11.3875C8.85417 11.6292 9.15 11.75 9.5 11.75ZM12 17C13 17 13.9042 16.725 14.7125 16.175C15.5208 15.625 16.1167 14.9 16.5 14H7.5C7.88333 14.9 8.47917 15.625 9.2875 16.175C10.0958 16.725 11 17 12 17ZM12 21C10.75 21 9.57917 20.7625 8.4875 20.2875C7.39583 19.8125 6.44583 19.1708 5.6375 18.3625C4.82917 17.5542 4.1875 16.6042 3.7125 15.5125C3.2375 14.4208 3 13.25 3 12C3 10.75 3.2375 9.57917 3.7125 8.4875C4.1875 7.39583 4.82917 6.44583 5.6375 5.6375C6.44583 4.82917 7.39583 4.1875 8.4875 3.7125C9.57917 3.2375 10.75 3 12 3C13.25 3 14.4208 3.2375 15.5125 3.7125C16.6042 4.1875 17.5542 4.82917 18.3625 5.6375C19.1708 6.44583 19.8125 7.39583 20.2875 8.4875C20.7625 9.57917 21 10.75 21 12C21 13.25 20.7625 14.4208 20.2875 15.5125C19.8125 16.6042 19.1708 17.5542 18.3625 18.3625C17.5542 19.1708 16.6042 19.8125 15.5125 20.2875C14.4208 20.7625 13.25 21 12 21ZM12.4 8.5C12.6833 8.5 13.0042 8.44583 13.3625 8.3375C13.7208 8.22917 13.9 7.98333 13.9 7.6C13.9 7.4 13.8333 7.225 13.7 7.075C13.5667 6.925 13.4 6.85 13.2 6.85C13.0667 6.85 12.9375 6.875 12.8125 6.925C12.6875 6.975 12.55 7 12.4 7C12.05 7 11.7542 6.87917 11.5125 6.6375C11.2708 6.39583 11.15 6.1 11.15 5.75C11.15 5.56667 11.1792 5.4125 11.2375 5.2875C11.2958 5.1625 11.3833 5.075 11.5 5.025C11.1833 5.05833 10.875 5.1 10.575 5.15C10.275 5.2 9.98333 5.28333 9.7 5.4C9.68333 5.45 9.67083 5.50833 9.6625 5.575C9.65417 5.64167 9.65 5.7 9.65 5.75C9.65 6.5 9.92083 7.14583 10.4625 7.6875C11.0042 8.22917 11.65 8.5 12.4 8.5Z" fill="currentColor"/>
</svg>
