<svg width="24" height="24" viewBox="0 0 24 24" fill="none" xmlns="http://www.w3.org/2000/svg">
<path d="M11.7046 21.7571C10.3213 21.7571 9.02126 21.4944 7.80459 20.9691C6.58792 20.4444 5.52959 19.7321 4.62959 18.8321C3.72959 17.9321 3.01726 16.8737 2.49259 15.6571C1.96726 14.4404 1.70459 13.1404 1.70459 11.7571C1.70459 10.3737 1.96726 9.07375 2.49259 7.85708C3.01726 6.64041 3.72959 5.58208 4.62959 4.68208C5.52959 3.78208 6.58792 3.06941 7.80459 2.54408C9.02126 2.01941 10.3213 1.75708 11.7046 1.75708C13.0879 1.75708 14.3879 2.01941 15.6046 2.54408C16.8213 3.06941 17.8796 3.78208 18.7796 4.68208C19.6796 5.58208 20.3919 6.64041 20.9166 7.85708C21.4419 9.07375 21.7046 10.3737 21.7046 11.7571C21.7046 13.1404 21.4419 14.4404 20.9166 15.6571C20.3919 16.8737 19.6796 17.9321 18.7796 18.8321C17.8796 19.7321 16.8213 20.4444 15.6046 20.9691C14.3879 21.4944 13.0879 21.7571 11.7046 21.7571Z" fill="currentColor"/>
</svg>
