<svg width="24" height="24" viewBox="0 0 24 24" fill="none" xmlns="http://www.w3.org/2000/svg">
<path d="M8 9V7H17V9H8ZM8 12V10H17V12H8ZM11 22H5C4.16667 22 3.45833 21.7083 2.875 21.125C2.29167 20.5417 2 19.8333 2 19V16H5V2H20V11.025C19.6667 10.9917 19.3292 11.0042 18.9875 11.0625C18.6458 11.1208 18.3167 11.225 18 11.375V4H7V16H13L11 18H4V19C4 19.2833 4.09583 19.5208 4.2875 19.7125C4.47917 19.9042 4.71667 20 5 20H11V22ZM13 22V18.925L18.525 13.425C18.675 13.275 18.8417 13.1667 19.025 13.1C19.2083 13.0333 19.3917 13 19.575 13C19.775 13 19.9667 13.0375 20.15 13.1125C20.3333 13.1875 20.5 13.3 20.65 13.45L21.575 14.375C21.7083 14.525 21.8125 14.6917 21.8875 14.875C21.9625 15.0583 22 15.2417 22 15.425C22 15.6083 21.9667 15.7958 21.9 15.9875C21.8333 16.1792 21.725 16.35 21.575 16.5L16.075 22H13ZM14.5 20.5H15.45L18.475 17.45L18.025 16.975L17.55 16.525L14.5 19.55V20.5ZM18.025 16.975L17.55 16.525L18.475 17.45L18.025 16.975Z" fill="currentColor"/>
</svg>
