<svg width="24" height="24" viewBox="0 0 24 24" fill="none" xmlns="http://www.w3.org/2000/svg">
<path d="M10.65 20C10.5 19.5667 10.3083 19.1667 10.075 18.8C9.84167 18.4333 9.56667 18.0917 9.25 17.775C8.93333 17.4583 8.59167 17.1792 8.225 16.9375C7.85833 16.6958 7.45833 16.5 7.025 16.35C7.05833 16.8333 7.175 17.2833 7.375 17.7C7.575 18.1167 7.84167 18.4917 8.175 18.825C8.50833 19.1583 8.88333 19.4292 9.3 19.6375C9.71667 19.8458 10.1667 19.9667 10.65 20ZM13.35 20C13.8333 19.95 14.2833 19.825 14.7 19.625C15.1167 19.425 15.4917 19.1583 15.825 18.825C16.1583 18.4917 16.425 18.1167 16.625 17.7C16.825 17.2833 16.95 16.8333 17 16.35C16.5667 16.5 16.1625 16.6917 15.7875 16.925C15.4125 17.1583 15.0667 17.4333 14.75 17.75C14.4333 18.0667 14.1583 18.4125 13.925 18.7875C13.6917 19.1625 13.5 19.5667 13.35 20ZM12 11C13.1 11 14.0417 10.6083 14.825 9.825C15.6083 9.04167 16 8.1 16 7V5.8L14.25 7.275L12 4.55L9.75 7.275L8 5.8V7C8 8.1 8.39167 9.04167 9.175 9.825C9.95833 10.6083 10.9 11 12 11ZM11 22C9.33333 22 7.91667 21.4167 6.75 20.25C5.58333 19.0833 5 17.6667 5 16V14C6.18333 13.9833 7.3 14.225 8.35 14.725C9.4 15.225 10.2833 15.9 11 16.75V12.925C9.56667 12.6917 8.375 12.0208 7.425 10.9125C6.475 9.80417 6 8.5 6 7V3.6C6 3.16667 6.19167 2.8625 6.575 2.6875C6.95833 2.5125 7.31667 2.56667 7.65 2.85L9.5 4.45L11.225 2.35C11.425 2.11667 11.6833 2 12 2C12.3167 2 12.575 2.11667 12.775 2.35L14.5 4.45L16.35 2.85C16.6833 2.56667 17.0417 2.5125 17.425 2.6875C17.8083 2.8625 18 3.16667 18 3.6V7C18 8.5 17.525 9.80417 16.575 10.9125C15.625 12.0208 14.4333 12.6917 13 12.925V16.75C13.7167 15.9 14.6 15.225 15.65 14.725C16.7 14.225 17.8167 13.9833 19 14V16C19 17.6667 18.4167 19.0833 17.25 20.25C16.0833 21.4167 14.6667 22 13 22H11Z" fill="currentColor"/>
</svg>
