<svg width="24" height="24" viewBox="0 0 24 24" fill="none" xmlns="http://www.w3.org/2000/svg">
<path d="M19.3 8.9L22.5 12.1L21.1 13.5L17.9 10.3C17.55 10.5 17.175 10.6667 16.775 10.8C16.375 10.9333 15.95 11 15.5 11C14.25 11 13.1875 10.5625 12.3125 9.6875C11.4375 8.8125 11 7.75 11 6.5C11 5.25 11.4375 4.1875 12.3125 3.3125C13.1875 2.4375 14.25 2 15.5 2C16.75 2 17.8125 2.4375 18.6875 3.3125C19.5625 4.1875 20 5.25 20 6.5C20 6.95 19.9333 7.375 19.8 7.775C19.6667 8.175 19.5 8.55 19.3 8.9ZM15.5 9C16.2 9 16.7917 8.75833 17.275 8.275C17.7583 7.79167 18 7.2 18 6.5C18 5.8 17.7583 5.20833 17.275 4.725C16.7917 4.24167 16.2 4 15.5 4C14.8 4 14.2083 4.24167 13.725 4.725C13.2417 5.20833 13 5.8 13 6.5C13 7.2 13.2417 7.79167 13.725 8.275C14.2083 8.75833 14.8 9 15.5 9ZM17.45 12.7L20 15.25V20C20 20.55 19.8042 21.0208 19.4125 21.4125C19.0208 21.8042 18.55 22 18 22H4C3.45 22 2.97917 21.8042 2.5875 21.4125C2.19583 21.0208 2 20.55 2 20V6C2 5.45 2.19583 4.97917 2.5875 4.5875C2.97917 4.19583 3.45 4 4 4H9.5C9.31667 4.41667 9.19167 4.84583 9.125 5.2875C9.05833 5.72917 9.025 6.16667 9.025 6.6C9.025 8.41667 9.66667 9.93333 10.95 11.15C12.2333 12.3667 13.7583 12.975 15.525 12.975C15.8417 12.975 16.1583 12.9542 16.475 12.9125C16.7917 12.8708 17.1167 12.8 17.45 12.7Z" fill="currentColor"/>
</svg>
