<svg width="24" height="24" viewBox="0 0 24 24" fill="none" xmlns="http://www.w3.org/2000/svg">
<path d="M19.85 16.4L9 5.55L12.6 2L18.25 7.55C18.9833 8.25 19.5583 9.079 19.975 10.037C20.3917 10.9957 20.6 12.0167 20.6 13.1C20.6 13.7 20.5333 14.275 20.4 14.825C20.2667 15.375 20.0833 15.9 19.85 16.4ZM20.4 22.6L17.3 19.5C16.6167 19.9833 15.8833 20.3543 15.1 20.613C14.3167 20.871 13.4833 21 12.6 21C10.3833 21 8.496 20.2293 6.938 18.688C5.37933 17.146 4.6 15.2833 4.6 13.1C4.6 12.25 4.73333 11.4333 5 10.65C5.26667 9.86667 5.66667 9.11667 6.2 8.4L2 4.2L3.4 2.8L21.8 21.2L20.4 22.6Z" fill="currentColor"/>
</svg>
