<svg width="24" height="24" viewBox="0 0 24 24" fill="none" xmlns="http://www.w3.org/2000/svg">
<path d="M12.5 23C10.1333 23 8.125 22.175 6.475 20.525C4.825 18.875 4 16.8667 4 14.5V5C4 4.71667 4.09583 4.47917 4.2875 4.2875C4.47917 4.09583 4.71667 4 5 4C5.28333 4 5.52083 4.09583 5.7125 4.2875C5.90417 4.47917 6 4.71667 6 5V11H8V3C8 2.71667 8.09583 2.47917 8.2875 2.2875C8.47917 2.09583 8.71667 2 9 2C9.28333 2 9.52083 2.09583 9.7125 2.2875C9.90417 2.47917 10 2.71667 10 3V11H12V2C12 1.71667 12.0958 1.47917 12.2875 1.2875C12.4792 1.09583 12.7167 1 13 1C13.2833 1 13.5208 1.09583 13.7125 1.2875C13.9042 1.47917 14 1.71667 14 2V11H16V4C16 3.71667 16.0958 3.47917 16.2875 3.2875C16.4792 3.09583 16.7167 3 17 3C17.2833 3 17.5208 3.09583 17.7125 3.2875C17.9042 3.47917 18 3.71667 18 4V9.75C17.5167 10.1 17.1458 10.5417 16.8875 11.075C16.6292 11.6083 16.5 12.1667 16.5 12.75V14H15.25C14.2 14 13.3125 14.3625 12.5875 15.0875C11.8625 15.8125 11.5 16.7 11.5 17.75V19H13V17.75C13 17.1167 13.2167 16.5833 13.65 16.15C14.0833 15.7167 14.6167 15.5 15.25 15.5H18V12.75C18 12.1167 18.2167 11.5833 18.65 11.15C19.0833 10.7167 19.6167 10.5 20.25 10.5H21V14.5C21 16.8667 20.175 18.875 18.525 20.525C16.875 22.175 14.8667 23 12.5 23Z" fill="currentColor"/>
</svg>
