<svg width="24" height="24" viewBox="0 0 24 24" fill="none" xmlns="http://www.w3.org/2000/svg">
<path d="M3.5 21.209C2.95 21.209 2.47917 21.0132 2.0875 20.6215C1.69583 20.2298 1.5 19.759 1.5 19.209V7.20898H3.5V19.209H18.5V21.209H3.5ZM7.5 17.209C6.95 17.209 6.47917 17.0132 6.0875 16.6215C5.69583 16.2298 5.5 15.759 5.5 15.209V3.20898H22.5V15.209C22.5 15.759 22.3042 16.2298 21.9125 16.6215C21.5208 17.0132 21.05 17.209 20.5 17.209H7.5ZM7.5 15.209H20.5V5.20898H7.5V15.209ZM9.5 12.209H13.5V7.20898H9.5V12.209ZM14.5 12.209H18.5V10.209H14.5V12.209ZM14.5 9.20898H18.5V7.20898H14.5V9.20898Z" fill="currentColor"/>
</svg>
