<svg width="24" height="24" viewBox="0 0 24 24" fill="none" xmlns="http://www.w3.org/2000/svg">
<path d="M11 12H13V7H11V12ZM12 16C12.2833 16 12.521 15.904 12.713 15.712C12.9043 15.5207 13 15.2833 13 15C13 14.7167 12.9043 14.479 12.713 14.287C12.521 14.0957 12.2833 14 12 14C11.7167 14 11.4793 14.0957 11.288 14.287C11.096 14.479 11 14.7167 11 15C11 15.2833 11.096 15.5207 11.288 15.712C11.4793 15.904 11.7167 16 12 16ZM12 22C9.68333 21.4167 7.771 20.0873 6.263 18.012C4.75433 15.9373 4 13.6333 4 11.1V5L12 2L20 5V11.1C20 13.6333 19.246 15.9373 17.738 18.012C16.2293 20.0873 14.3167 21.4167 12 22ZM12 19.9C13.7333 19.35 15.1667 18.25 16.3 16.6C17.4333 14.95 18 13.1167 18 11.1V6.375L12 4.125L6 6.375V11.1C6 13.1167 6.56667 14.95 7.7 16.6C8.83333 18.25 10.2667 19.35 12 19.9Z" fill="currentColor"/>
</svg>
