<svg width="24" height="24" viewBox="0 0 24 24" fill="none" xmlns="http://www.w3.org/2000/svg">
<path d="M10 21V19.1C10 18.75 10.0875 18.4208 10.2625 18.1125C10.4375 17.8042 10.675 17.5583 10.975 17.375C11.7417 16.925 12.5458 16.5833 13.3875 16.35C14.2292 16.1167 15.1 16 16 16C16.9 16 17.7708 16.1167 18.6125 16.35C19.4542 16.5833 20.2583 16.925 21.025 17.375C21.325 17.5583 21.5625 17.8042 21.7375 18.1125C21.9125 18.4208 22 18.75 22 19.1V21H10ZM2 21V9L10 3L15.375 7.05C14.125 7.2 13.0833 7.74583 12.25 8.6875C11.4167 9.62917 11 10.7333 11 12C11 12.5167 11.0708 13.0042 11.2125 13.4625C11.3542 13.9208 11.5583 14.35 11.825 14.75C11.4917 14.8833 11.1708 15.0208 10.8625 15.1625C10.5542 15.3042 10.25 15.4667 9.95 15.65C9.35 16 8.875 16.4875 8.525 17.1125C8.175 17.7375 8 18.4 8 19.1V21H2ZM16 15C15.1667 15 14.4583 14.7083 13.875 14.125C13.2917 13.5417 13 12.8333 13 12C13 11.1667 13.2917 10.4583 13.875 9.875C14.4583 9.29167 15.1667 9 16 9C16.8333 9 17.5417 9.29167 18.125 9.875C18.7083 10.4583 19 11.1667 19 12C19 12.8333 18.7083 13.5417 18.125 14.125C17.5417 14.7083 16.8333 15 16 15Z" fill="currentColor"/>
</svg>
