<svg width="24" height="24" viewBox="0 0 24 24" fill="none" xmlns="http://www.w3.org/2000/svg">
<path d="M11.9584 12.311C12.5084 12.311 12.9792 12.1152 13.3709 11.7235C13.7626 11.3319 13.9584 10.861 13.9584 10.311C13.9584 9.76103 13.7626 9.2902 13.3709 8.89854C12.9792 8.50687 12.5084 8.31104 11.9584 8.31104C11.4084 8.31104 10.9376 8.50687 10.5459 8.89854C10.1542 9.2902 9.9584 9.76103 9.9584 10.311C9.9584 10.861 10.1542 11.3319 10.5459 11.7235C10.9376 12.1152 11.4084 12.311 11.9584 12.311ZM11.9584 22.311C9.27507 20.0277 7.2709 17.9069 5.9459 15.9485C4.6209 13.9902 3.9584 12.1777 3.9584 10.511C3.9584 8.01103 4.76257 6.01937 6.3709 4.53604C7.97924 3.0527 9.84174 2.31104 11.9584 2.31104C14.0751 2.31104 15.9376 3.0527 17.5459 4.53604C19.1542 6.01937 19.9584 8.01103 19.9584 10.511C19.9584 12.1777 19.2959 13.9902 17.9709 15.9485C16.6459 17.9069 14.6417 20.0277 11.9584 22.311Z" fill="currentColor"/>
</svg>
