<svg width="24" height="24" viewBox="0 0 24 24" fill="none" xmlns="http://www.w3.org/2000/svg">
<path d="M12 15C12.9333 15 13.775 14.7708 14.525 14.3125C15.275 13.8542 15.8667 13.25 16.3 12.5C15.7167 12.0167 15.0583 11.6458 14.325 11.3875C13.5917 11.1292 12.8167 11 12 11C11.1833 11 10.4083 11.1292 9.675 11.3875C8.94167 11.6458 8.28333 12.0167 7.7 12.5C8.13333 13.25 8.725 13.8542 9.475 14.3125C10.225 14.7708 11.0667 15 12 15ZM12 10C12.55 10 13.0208 9.80417 13.4125 9.4125C13.8042 9.02083 14 8.55 14 8C14 7.45 13.8042 6.97917 13.4125 6.5875C13.0208 6.19583 12.55 6 12 6C11.45 6 10.9792 6.19583 10.5875 6.5875C10.1958 6.97917 10 7.45 10 8C10 8.55 10.1958 9.02083 10.5875 9.4125C10.9792 9.80417 11.45 10 12 10ZM12 22C9.31667 19.7167 7.3125 17.5958 5.9875 15.6375C4.6625 13.6792 4 11.8667 4 10.2C4 7.7 4.80417 5.70833 6.4125 4.225C8.02083 2.74167 9.88333 2 12 2C14.1167 2 15.9792 2.74167 17.5875 4.225C19.1958 5.70833 20 7.7 20 10.2C20 11.8667 19.3375 13.6792 18.0125 15.6375C16.6875 17.5958 14.6833 19.7167 12 22Z" fill="currentColor"/>
</svg>
