<svg width="24" height="24" viewBox="0 0 24 24" fill="none" xmlns="http://www.w3.org/2000/svg">
<path d="M12.8 11.0001V5.0001H14.8V7.6001L19.8 2.6001L21.2 4.0001L16.2 9.0001H18.8V11.0001H12.8ZM19.95 21.0001C17.8 21.0001 15.7043 20.5208 13.663 19.5621C11.621 18.6041 9.81267 17.3374 8.238 15.7621C6.66267 14.1874 5.396 12.3791 4.438 10.3371C3.47933 8.29576 3 6.2001 3 4.0501C3 3.7501 3.1 3.5001 3.3 3.3001C3.5 3.1001 3.75 3.0001 4.05 3.0001H8.1C8.33333 3.0001 8.54167 3.0751 8.725 3.2251C8.90833 3.3751 9.01667 3.56676 9.05 3.8001L9.7 7.3001C9.73333 7.53343 9.72933 7.74576 9.688 7.9371C9.646 8.1291 9.55 8.3001 9.4 8.4501L7 10.9001C7.7 12.1001 8.575 13.2251 9.625 14.2751C10.675 15.3251 11.8333 16.2334 13.1 17.0001L15.45 14.6501C15.6 14.5001 15.796 14.3874 16.038 14.3121C16.2793 14.2374 16.5167 14.2168 16.75 14.2501L20.2 14.9501C20.4333 15.0001 20.625 15.1124 20.775 15.2871C20.925 15.4624 21 15.6668 21 15.9001V19.9501C21 20.2501 20.9 20.5001 20.7 20.7001C20.5 20.9001 20.25 21.0001 19.95 21.0001Z" fill="currentColor"/>
</svg>
