<svg width="24" height="24" viewBox="0 0 24 24" fill="none" xmlns="http://www.w3.org/2000/svg">
<path d="M16 11.5728C16.2833 11.5728 16.5208 11.4769 16.7125 11.2853C16.9042 11.0936 17 10.8561 17 10.5728C17 10.2894 16.9042 10.0519 16.7125 9.86025C16.5208 9.66859 16.2833 9.57275 16 9.57275C15.7167 9.57275 15.4792 9.66859 15.2875 9.86025C15.0958 10.0519 15 10.2894 15 10.5728C15 10.8561 15.0958 11.0936 15.2875 11.2853C15.4792 11.4769 15.7167 11.5728 16 11.5728ZM8 9.57275H13V7.57275H8V9.57275ZM4.5 21.5728C3.93333 19.6728 3.375 17.7769 2.825 15.8853C2.275 13.9936 2 12.0561 2 10.0728C2 8.53942 2.53333 7.23942 3.6 6.17275C4.66667 5.10609 5.96667 4.57275 7.5 4.57275H12.5C12.9833 3.93942 13.5708 3.44775 14.2625 3.09775C14.9542 2.74775 15.7 2.57275 16.5 2.57275C16.9167 2.57275 17.2708 2.71859 17.5625 3.01025C17.8542 3.30192 18 3.65609 18 4.07275C18 4.15609 17.9583 4.34775 17.875 4.64775C17.8083 4.83109 17.7458 5.01859 17.6875 5.21025C17.6292 5.40192 17.5833 5.59775 17.55 5.79775L19.825 8.07275H22V15.0478L19.175 15.9728L17.5 21.5728H12V19.5728H10V21.5728H4.5Z" fill="currentColor"/>
</svg>
